# xmcd
#
# Track frame offsets:
#	150
#	6184
#	9946
#	12252
#	19644
#	26091
#	28014
#	30175
#	39977
#	42587
#	45906
#	53097
#	57020
#	63632
#	70020
#	75436
#	80260
#	82526
#	87422
#	90752
#	94903
#	98011
#	101300
#	109768
#	114955
#	122643
#	125305
#	130173
#	141959
#	150834
#	157250
#	173287
#	175632
#	179313
#	183345
#	186128
#	190342
#	192930
#	198368
#	200127
#	207787
#	211286
#	218370
#	221316
#	227873
#	235915
#	240622
#	244825
#	251168
#	254531
#	260925
#	264414
# Disc length: 3640 seconds
# Revision: 1
# Processed by: cddbd v1.5.2PL0 Copyright (c) Steve Scherf et al.
#
# Submitted via: libkcddb 0.10
#
DISCID=9f0e3634
DTITLE=Textes de Robert DESNOS - la belle saison est proche
DYEAR=1900
DGENRE=
TTITLE0=La pivoine (musique Jean Wiener)
TTITLE1=La violette (musique  Jean Wiener)
TTITLE2=Le reseda (musique Jean Wiener)
TTITLE3=Les roses de Bagatelle (musique Yani Spanos)
TTITLE4=Le tamanoir (musique Henry Barraud)
TTITLE5=La sauterelle (musique Henry Barraud)
TTITLE6=Le blaireau (musique Henry Barraud)
TTITLE7=l'alligator (musique Henry Barraud)
TTITLE8=Chanson de chasse
TTITLE9=Le leopard (musique Jean Wiener)
TTITLE10=Le dromadaire (musique Jean Wiener)
TTITLE11=L'hippocampe (musique Jean Wiener)
TTITLE12=Le crapaud (musique Jean Wiener)
TTITLE13=La chauve-souris (musique Jean Wiener)
TTITLE14=Le lama (musique Jean Wiener)
TTITLE15=La renoncule (musique Jean Wiener)
TTITLE16=Le bouton d'or (musique Jean Wiener)
TTITLE17=Le lotus (musique Jean Wiener)
TTITLE18=Le glaieul (musique Jean Wiener)
TTITLE19=l'orchidee et la pensee (musique Jean Wiener)
TTITLE20=La tulipe (musique Jean Wiener)
TTITLE21=La veronique (musique Jean Wiener)
TTITLE22=Le geranium (musique Jean Wiener)
TTITLE23=La rose a voix de soprano (musique Joseph Kosma)
TTITLE24=La dame pavot nouvelle epousee (musique Joseph Kosma)
TTITLE25=Mon tombeau
TTITLE26=L'oiseau du Colorado (musique Joseph Kosma)
TTITLE27=Le poisson sans souci (musique Joseph Kosma)
TTITLE28=L'araignee a moustaches (musique Joseph Kosma)
TTITLE29=Le chat qui ne ressemble a rien (musique Joseph Kosma)
TTITLE30=Y a des punaises dans le roti de porc musique  (Joseph Racaille)
TTITLE31=Le rond et l'etoile
TTITLE32=L'angelique (musique Jean Wiener)
TTITLE33=Le cyclamen (musique Jean Wiener)
TTITLE34=Le myosotis (musique Jean Wiener)
TTITLE35=Le coucou (musique Jean Wiener)
TTITLE36=Le rhododendron, l'oeillet,et le lilas (musique Jean Wiener)
TTITLE37=Min' de rien (musique Fabrice Boulanger)
TTITLE38=Conte de fee
TTITLE39=Le couplet du boucher (musique Vincent Bouchot)
TTITLE40=Le genet (musique Jean Wiener)
TTITLE41=Le jasmin (musique Jean Wiener)
TTITLE42=Au bout du monde
TTITLE43=Le disparu (musique Francis Poulenc)
TTITLE44=Dernier poeme
TTITLE45=Demain
TTITLE46=La belle de nuit (musique Jean Wiener)
TTITLE47=La pervenche et la primevere (musique Jean Wiener)
TTITLE48=L'hortensia(musique Jean Wiener)
TTITLE49=Le vert luisant (musique Marc Perrone)
TTITLE50=La voix
TTITLE51=Le mimosa (musique Jean Wiener)
EXTD=
EXTT0=
EXTT1=
EXTT2=
EXTT3=
EXTT4=
EXTT5=
EXTT6=
EXTT7=
EXTT8=
EXTT9=
EXTT10=
EXTT11=
EXTT12=
EXTT13=
EXTT14=
EXTT15=
EXTT16=
EXTT17=
EXTT18=
EXTT19=
EXTT20=
EXTT21=
EXTT22=
EXTT23=
EXTT24=
EXTT25=
EXTT26=
EXTT27=
EXTT28=
EXTT29=
EXTT30=
EXTT31=
EXTT32=
EXTT33=
EXTT34=
EXTT35=
EXTT36=
EXTT37=
EXTT38=
EXTT39=
EXTT40=
EXTT41=
EXTT42=
EXTT43=
EXTT44=
EXTT45=
EXTT46=
EXTT47=
EXTT48=
EXTT49=
EXTT50=
EXTT51=
PLAYORDER=
